<svg width="59" height="27" viewBox="0 0 59 27" fill="none" xmlns="http://www.w3.org/2000/svg">
    <g clip-path="url(#clip0_1_5572)">
        <path d="M9.64932 16.5242C9.84528 16.5849 10.0471 16.6247 10.2515 16.643C10.4501 16.6618 10.6518 16.6696 10.852 16.6696C11.3421 16.6725 11.83 16.604 12.3003 16.4663C12.7607 16.3301 13.2001 16.1312 13.6062 15.8751C14.016 15.6188 14.385 15.3024 14.7011 14.9367C15.0216 14.5677 15.2851 14.1528 15.4831 13.7058L19.2367 17.486C18.7647 18.1583 18.2121 18.7702 17.5913 19.3081C16.9783 19.8432 16.3042 20.3041 15.5831 20.6813C14.8626 21.0571 14.0989 21.3438 13.3091 21.5352C11.1614 22.0532 8.90505 21.8791 6.86226 21.0379C5.6368 20.5245 4.52487 19.774 3.59037 18.8295C2.64108 17.8671 1.89068 16.7272 1.38199 15.4747C0.831639 14.1192 0.55625 12.6679 0.57184 11.205C0.552916 9.71271 0.827109 8.23122 1.37887 6.84455C1.86861 5.60028 2.60648 4.46871 3.54757 3.51875C4.48866 2.56879 5.61325 1.82032 6.85288 1.31893C8.1206 0.801533 9.47814 0.540017 10.8473 0.54944C11.6772 0.547474 12.5041 0.648338 13.3091 0.849729C15.7198 1.4508 17.8341 2.89847 19.2664 4.92865L9.64932 16.5242ZM12.2815 5.94212C12.0529 5.85796 11.8151 5.80126 11.573 5.77321C11.3325 5.74823 11.0908 5.7357 10.8489 5.73568C10.1687 5.73099 9.49445 5.86234 8.86575 6.12198C8.25784 6.37056 7.70859 6.74347 7.25326 7.21679C6.78236 7.7131 6.41451 8.29784 6.17097 8.93719C5.89916 9.66026 5.76547 10.4279 5.77684 11.2003C5.77684 11.3895 5.78623 11.6023 5.805 11.84C5.82577 12.0845 5.85918 12.3278 5.90509 12.5688C5.94888 12.8128 6.00102 13.049 6.06149 13.2773C6.11679 13.4871 6.19879 13.689 6.30548 13.8779L12.2815 5.94212Z" fill="#3DA3DB"/>
        <path d="M41.4612 8.44775C41.2296 7.60913 40.8967 6.80187 40.4696 6.04388C40.38 6.51136 40.1245 6.93072 39.7502 7.2247C39.796 7.35474 39.8295 7.48879 39.8503 7.62509C40.0021 7.87373 40.1006 8.15121 40.1396 8.43993C40.6886 9.64891 40.0974 11.4115 38.3692 11.4115C38.1613 11.4119 37.9543 11.383 37.7545 11.3255C37.7532 12.1795 37.577 13.0242 37.2368 13.8076C36.917 14.5451 36.4685 15.2199 35.9121 15.8001C35.8746 15.8392 35.8464 15.8721 35.837 15.8815C35.055 16.7292 33.7585 17.2766 33.7585 17.2766C32.9402 17.6252 32.0595 17.8039 31.1701 17.8021C30.2926 17.8081 29.4234 17.6318 28.6176 17.2844C27.0566 16.6135 25.8126 15.3689 25.1424 13.8076C24.797 13.0084 24.6212 12.1461 24.6263 11.2755C24.6217 10.3993 24.7974 9.53155 25.1424 8.72614C25.4728 7.94835 25.9508 7.24195 26.55 6.64602C27.1486 6.05084 27.8537 5.57336 28.6285 5.23842C29.4346 4.89872 30.3017 4.72786 31.1763 4.73637C32.0636 4.73483 32.942 4.91306 33.7585 5.26031C34.5703 5.60143 35.2994 6.11293 35.8965 6.76019L38.0861 3.17393C37.1404 2.34833 36.0509 1.70366 34.8721 1.2721C33.691 0.838266 32.4423 0.617446 31.1841 0.619913C30.2328 0.617283 29.2855 0.745159 28.3689 0.999966C26.124 1.62396 24.1453 2.96617 22.7355 4.8213C21.3257 6.67642 20.5624 8.94231 20.5624 11.2723C20.5624 13.6024 21.3257 15.8683 22.7355 17.7234C24.1453 19.5785 26.124 20.9207 28.3689 21.5447C29.8098 21.9416 31.3184 22.0287 32.7954 21.8004C34.2724 21.572 35.6843 21.0334 36.9381 20.22C37.3358 19.9584 37.719 19.6754 38.0861 19.3723C38.2722 19.2159 38.4771 19.0486 38.732 18.7999C39.1326 18.407 39.4989 17.9805 39.8268 17.5252C40.0333 17.2406 40.2256 16.945 40.4024 16.6416C40.8654 15.8432 41.2249 14.9892 41.4721 14.1001C41.9789 12.2527 41.9789 10.303 41.4721 8.45557L41.4612 8.44775Z" fill="#03577A"/>
        <path d="M58.9984 11.2724C59.0009 12.2238 58.873 13.171 58.6183 14.0876C58.3709 14.976 58.012 15.8294 57.5501 16.6276C57.0909 17.4158 56.5315 18.1413 55.886 18.7859C55.2414 19.4317 54.5178 19.9934 53.7324 20.4578C52.1068 21.4147 50.2541 21.9175 48.3678 21.9139C47.4165 21.9164 46.4693 21.7885 45.5526 21.5338C43.7771 21.0383 42.1594 20.0931 40.8561 18.7894C39.5527 17.4858 38.6078 15.868 38.1127 14.0923C37.7341 12.7256 37.6343 11.2968 37.8192 9.89076C38.004 8.48474 38.4698 7.13025 39.1887 5.90787C39.6517 5.12286 40.213 4.40018 40.8591 3.75736C41.5035 3.11096 42.2296 2.55153 43.0189 2.09326C44.4255 1.27147 46.0023 0.784051 47.6272 0.668662C49.2522 0.553273 50.882 0.813003 52.3906 1.42779C53.8992 2.04257 55.2463 2.99595 56.3278 4.21426C57.4092 5.43257 58.1961 6.8832 58.6277 8.45407C58.8786 9.37234 59.0033 10.3205 58.9984 11.2724ZM54.9101 11.2724C54.9144 10.3968 54.737 9.5298 54.3893 8.7262C54.0545 7.93437 53.5671 7.21623 52.9549 6.6128C52.3426 6.00936 51.6174 5.53245 50.8208 5.2093C50.0242 4.88616 49.1717 4.7231 48.3121 4.72945C47.4524 4.73579 46.6025 4.91142 45.8107 5.24629C45.0356 5.58159 44.33 6.05901 43.7306 6.6539C43.1319 7.25028 42.654 7.95657 42.323 8.73402C41.9776 9.53822 41.8019 10.405 41.8068 11.2802C41.8003 12.151 41.9761 13.0136 42.323 13.8123C42.9954 15.3767 44.2436 16.6226 45.8091 17.2923C47.0098 17.801 48.3352 17.9389 49.6149 17.688C50.8945 17.4372 52.0698 16.8091 52.9895 15.8846C53.5827 15.2866 54.0576 14.5819 54.3893 13.8077C54.7381 13.0083 54.9155 12.1446 54.9101 11.2724Z" fill="#03577A"/>
        <path d="M1.95291 25.8755C1.92627 25.8778 1.89944 25.8746 1.87412 25.866C1.84881 25.8573 1.82557 25.8435 1.80589 25.8254C1.77 25.7851 1.75145 25.7323 1.75428 25.6784V23.5795C1.75225 23.5528 1.75579 23.5259 1.76467 23.5006C1.77356 23.4753 1.78759 23.4521 1.80589 23.4325C1.8257 23.4145 1.84892 23.4007 1.87417 23.3918C1.89942 23.383 1.9262 23.3792 1.95291 23.3809H2.63638C2.98219 23.3558 3.32394 23.4682 3.58729 23.6937C3.70423 23.8165 3.79448 23.9621 3.85235 24.1214C3.91023 24.2808 3.93447 24.4504 3.92355 24.6196C3.92644 24.8016 3.89732 24.9826 3.83753 25.1545C3.78581 25.303 3.70013 25.4375 3.58729 25.547C3.47182 25.6537 3.33473 25.7343 3.18534 25.7832C3.00823 25.8412 2.8227 25.8692 2.63638 25.8661L1.95291 25.8755ZM2.12338 25.5627H2.62074C2.758 25.5653 2.89478 25.5458 3.02581 25.5048C3.1369 25.4719 3.238 25.4117 3.31993 25.3297C3.40187 25.2478 3.46205 25.1467 3.49502 25.0356C3.53472 24.9011 3.5537 24.7614 3.55132 24.6212C3.56145 24.4933 3.54576 24.3646 3.50519 24.2429C3.46462 24.1212 3.39999 24.0089 3.31516 23.9127C3.22138 23.8289 3.11173 23.7648 2.99271 23.7242C2.87368 23.6837 2.74772 23.6674 2.6223 23.6765H2.12338V25.5627Z" fill="#00303F"/>
        <path d="M4.55381 23.7609C4.49391 23.764 4.43493 23.7451 4.38802 23.7077C4.36717 23.6877 4.35112 23.6633 4.3411 23.6362C4.33107 23.6091 4.32733 23.5801 4.33015 23.5513C4.32709 23.5226 4.33073 23.4935 4.34076 23.4663C4.3508 23.4392 4.36698 23.4148 4.38802 23.3949C4.43473 23.3573 4.494 23.3388 4.55381 23.3433C4.61048 23.3409 4.66609 23.3593 4.71021 23.3949C4.73116 23.4149 4.74737 23.4393 4.75766 23.4664C4.76794 23.4934 4.77204 23.5225 4.76964 23.5513C4.77192 23.5802 4.76778 23.6092 4.7575 23.6362C4.74722 23.6632 4.73107 23.6877 4.71021 23.7077C4.66597 23.7433 4.61058 23.7622 4.55381 23.7609ZM4.55381 25.8973C4.52961 25.8988 4.50537 25.8951 4.48272 25.8865C4.46007 25.8778 4.43951 25.8645 4.42243 25.8473C4.38974 25.8061 4.37356 25.7543 4.37707 25.7018V24.3208C4.37293 24.2693 4.38922 24.2181 4.42243 24.1785C4.45901 24.1471 4.50561 24.1298 4.55381 24.1298C4.602 24.1298 4.64861 24.1471 4.68518 24.1785C4.71937 24.2177 4.73678 24.2688 4.73367 24.3208V25.705C4.73693 25.7569 4.72077 25.8082 4.68831 25.8488C4.67068 25.8661 4.64954 25.8794 4.62633 25.8877C4.60313 25.8961 4.57839 25.8994 4.55381 25.8973Z" fill="#00303F"/>
        <path d="M6.02087 26.5464C5.8963 26.546 5.7721 26.5329 5.6502 26.5073C5.53592 26.4828 5.42651 26.4395 5.32645 26.3791C5.29634 26.3672 5.27153 26.3448 5.25659 26.316C5.24165 26.2873 5.23758 26.2542 5.24512 26.2227C5.25118 26.1949 5.26409 26.1691 5.28266 26.1476C5.30086 26.127 5.32483 26.1122 5.35147 26.1054C5.3814 26.0989 5.41267 26.1039 5.43906 26.1194C5.53152 26.1724 5.63105 26.2119 5.73466 26.2367C5.82027 26.2567 5.90792 26.2667 5.99584 26.2665C6.11154 26.282 6.2287 26.2511 6.32164 26.1805C6.41457 26.1098 6.4757 26.0052 6.49163 25.8895C6.49633 25.8501 6.49633 25.8102 6.49163 25.7707V25.4094H6.53073C6.49891 25.538 6.41956 25.6497 6.30865 25.7222C6.1923 25.8007 6.05489 25.8422 5.91452 25.8411C5.77125 25.8445 5.63002 25.8065 5.50788 25.7316C5.39084 25.6598 5.29734 25.5555 5.23887 25.4313C5.17172 25.2902 5.13851 25.1355 5.1419 24.9793C5.14044 24.8592 5.15894 24.7398 5.19664 24.6258C5.23064 24.5268 5.28378 24.4354 5.35304 24.3568C5.41856 24.2811 5.50037 24.2212 5.59233 24.1816C5.69119 24.1395 5.79767 24.1182 5.90513 24.1191C6.04538 24.1172 6.18287 24.1581 6.29926 24.2364C6.40955 24.3088 6.4879 24.4208 6.51822 24.5492L6.48225 24.6102V24.3161C6.4826 24.2801 6.49344 24.2449 6.51342 24.2149C6.53341 24.1848 6.5617 24.1613 6.59484 24.147C6.62798 24.1328 6.66454 24.1284 6.70009 24.1346C6.73563 24.1407 6.76862 24.1571 6.79505 24.1816C6.81126 24.1999 6.82364 24.2212 6.83143 24.2443C6.83922 24.2674 6.84228 24.2918 6.84041 24.3161V25.7441C6.8486 25.8544 6.83425 25.9652 6.79822 26.0698C6.76219 26.1744 6.70523 26.2706 6.63083 26.3525C6.547 26.4235 6.44993 26.4772 6.34524 26.5104C6.24055 26.5437 6.13031 26.556 6.02087 26.5464ZM5.99272 25.5533C6.08578 25.5559 6.17761 25.5315 6.25703 25.4829C6.33201 25.4334 6.39118 25.3633 6.42751 25.2811C6.47009 25.1825 6.49089 25.0758 6.48851 24.9683C6.49803 24.8165 6.45188 24.6663 6.35869 24.5461C6.31393 24.4943 6.25803 24.4534 6.19519 24.4263C6.13236 24.3992 6.06421 24.3867 5.99584 24.3897C5.90318 24.388 5.812 24.413 5.73309 24.4616C5.65777 24.5105 5.59806 24.58 5.56105 24.6618C5.51658 24.7599 5.49569 24.867 5.50006 24.9746C5.49108 25.1281 5.53896 25.2795 5.63456 25.4C5.67898 25.4507 5.73422 25.4908 5.79621 25.5174C5.8582 25.5439 5.92535 25.5562 5.99272 25.5533Z" fill="#00303F"/>
        <path d="M7.51918 23.7609C7.45928 23.764 7.40031 23.7451 7.35339 23.7077C7.3329 23.6875 7.3171 23.663 7.3071 23.6359C7.2971 23.6089 7.29315 23.58 7.29553 23.5513C7.29282 23.5226 7.29661 23.4936 7.30663 23.4665C7.31665 23.4395 7.33263 23.415 7.35339 23.3949C7.4001 23.3573 7.45937 23.3388 7.51918 23.3433C7.57586 23.3409 7.63146 23.3593 7.67558 23.3949C7.69653 23.4149 7.71274 23.4393 7.72303 23.4664C7.73331 23.4934 7.73741 23.5225 7.73501 23.5513C7.73764 23.5802 7.73365 23.6093 7.72335 23.6364C7.71305 23.6635 7.69672 23.6879 7.67558 23.7077C7.63134 23.7433 7.57595 23.7622 7.51918 23.7609ZM7.51918 25.8973C7.49499 25.8987 7.47078 25.895 7.44814 25.8863C7.4255 25.8777 7.40494 25.8644 7.3878 25.8473C7.35511 25.8061 7.33893 25.7543 7.34245 25.7018V24.3208C7.33912 24.2694 7.35531 24.2185 7.3878 24.1785C7.40502 24.1616 7.42563 24.1485 7.44828 24.1401C7.47093 24.1318 7.4951 24.1283 7.51918 24.13C7.54348 24.1285 7.56784 24.132 7.59071 24.1404C7.61359 24.1487 7.63449 24.1617 7.65212 24.1785C7.68589 24.2179 7.70275 24.269 7.69904 24.3208V25.705C7.70325 25.756 7.68818 25.8068 7.65681 25.8473C7.63896 25.8652 7.61738 25.879 7.59359 25.8877C7.5698 25.8963 7.54439 25.8996 7.51918 25.8973Z" fill="#00303F"/>
        <path d="M8.93931 25.9083C8.8172 25.9117 8.69604 25.886 8.58585 25.8332C8.4896 25.7874 8.41182 25.7102 8.36532 25.6143C8.31554 25.5027 8.29149 25.3814 8.29494 25.2592V24.4241H8.08224C8.04208 24.4256 8.00287 24.4116 7.97276 24.385C7.95144 24.3652 7.9369 24.3393 7.93123 24.3108C7.92557 24.2823 7.92906 24.2527 7.94121 24.2264C7.95336 24.2 7.97355 24.1781 7.99888 24.1639C8.02421 24.1497 8.05339 24.1439 8.08224 24.1472H8.29494V23.7828C8.29343 23.7582 8.29679 23.7335 8.30484 23.7101C8.31289 23.6868 8.32547 23.6652 8.34186 23.6467C8.3792 23.6149 8.42737 23.5987 8.47637 23.6014C8.49993 23.6 8.52354 23.6033 8.54582 23.6111C8.56811 23.6188 8.58862 23.631 8.60618 23.6467C8.62287 23.665 8.63564 23.6865 8.64371 23.7099C8.65178 23.7333 8.65498 23.7581 8.6531 23.7828V24.1472H9.06756C9.09641 24.1439 9.12559 24.1497 9.15092 24.1639C9.17625 24.1781 9.19644 24.2 9.20859 24.2264C9.22074 24.2527 9.22423 24.2823 9.21857 24.3108C9.2129 24.3393 9.19836 24.3652 9.17704 24.385C9.14693 24.4116 9.10772 24.4256 9.06756 24.4241H8.6531V25.2326C8.64568 25.3332 8.67331 25.4332 8.7313 25.5157C8.76453 25.5507 8.8054 25.5775 8.85071 25.5941C8.89602 25.6106 8.94454 25.6165 8.99249 25.6111C9.02988 25.6117 9.0672 25.6075 9.10353 25.5986L9.18486 25.583C9.19656 25.5828 9.20817 25.5851 9.21893 25.5897C9.2297 25.5943 9.23941 25.6011 9.24742 25.6096C9.26796 25.6392 9.27686 25.6754 9.27245 25.7112C9.27263 25.7451 9.26571 25.7787 9.25211 25.8098C9.24673 25.8247 9.23779 25.838 9.22607 25.8486C9.21434 25.8593 9.2002 25.8669 9.18486 25.8708C9.14581 25.882 9.10612 25.8909 9.066 25.8974C9.024 25.9033 8.98171 25.907 8.93931 25.9083Z" fill="#00303F"/>
        <path d="M10.0482 25.9083C9.93618 25.9094 9.82541 25.8848 9.72444 25.8363C9.63496 25.7933 9.55837 25.7275 9.50235 25.6455C9.44777 25.5654 9.41936 25.4703 9.42102 25.3734C9.41472 25.2637 9.44926 25.1556 9.51799 25.0699C9.60614 24.9851 9.71894 24.9303 9.84017 24.9135C10.0409 24.8772 10.2447 24.8609 10.4486 24.8651H10.605V25.0856H10.4486C10.3136 25.083 10.1787 25.0914 10.0451 25.1106C9.96818 25.1174 9.89488 25.1462 9.83392 25.1935C9.81367 25.2141 9.79782 25.2385 9.78734 25.2654C9.77685 25.2923 9.77195 25.3211 9.77292 25.3499C9.77119 25.3909 9.77857 25.4319 9.79452 25.4697C9.81048 25.5076 9.83461 25.5414 9.8652 25.5689C9.937 25.6271 10.0278 25.6566 10.1201 25.6518C10.2033 25.6546 10.2855 25.6329 10.3563 25.5892C10.4229 25.5482 10.4769 25.4898 10.5127 25.4203C10.5534 25.3455 10.5739 25.2614 10.5721 25.1763V24.7697C10.5818 24.6655 10.5517 24.5615 10.4877 24.4788C10.4494 24.4458 10.4049 24.4208 10.3568 24.4055C10.3087 24.3902 10.258 24.3848 10.2077 24.3896C10.1282 24.3903 10.049 24.3997 9.97155 24.4178C9.8837 24.4397 9.79868 24.4717 9.71818 24.5132C9.68696 24.5311 9.6505 24.5377 9.61496 24.5319C9.58762 24.524 9.56387 24.5069 9.5477 24.4834C9.53145 24.4593 9.52225 24.4312 9.52112 24.4021C9.51998 24.3721 9.52701 24.3424 9.54145 24.3161C9.55966 24.2854 9.58865 24.2625 9.62278 24.252C9.72232 24.2039 9.82736 24.1682 9.93558 24.1456C10.0297 24.1254 10.1255 24.1143 10.2218 24.1128C10.3561 24.1084 10.4897 24.1341 10.6128 24.1878C10.7132 24.2348 10.7943 24.3149 10.8427 24.4146C10.8968 24.5387 10.9219 24.6735 10.9162 24.8088V25.719C10.9198 25.7666 10.9047 25.8138 10.874 25.8504C10.8586 25.8676 10.8394 25.8809 10.818 25.8894C10.7965 25.8978 10.7734 25.901 10.7504 25.8989C10.7283 25.8997 10.7063 25.8957 10.6858 25.8874C10.6653 25.879 10.6468 25.8664 10.6316 25.8504C10.5998 25.8143 10.5835 25.7671 10.5862 25.719V25.4875H10.6175C10.6018 25.5702 10.5658 25.6476 10.5127 25.7128C10.4627 25.7759 10.3976 25.8254 10.3235 25.8566C10.2367 25.8941 10.1426 25.9117 10.0482 25.9083Z" fill="#00303F"/>
        <path d="M11.9547 25.9083C11.8781 25.9147 11.801 25.904 11.7291 25.8769C11.6572 25.8499 11.5921 25.8072 11.5387 25.7519C11.4359 25.6181 11.3864 25.451 11.3995 25.2827V23.5342C11.3972 23.5098 11.4001 23.4853 11.4079 23.4621C11.4157 23.439 11.4283 23.4177 11.4448 23.3997C11.4624 23.3834 11.4831 23.3708 11.5057 23.3627C11.5283 23.3546 11.5523 23.3513 11.5762 23.3528C11.6244 23.3506 11.6716 23.3675 11.7076 23.3997C11.7248 23.4173 11.7381 23.4385 11.7465 23.4617C11.7548 23.4849 11.7581 23.5096 11.7561 23.5342V25.2546C11.7495 25.3483 11.7749 25.4415 11.828 25.5189C11.8545 25.5486 11.8875 25.5718 11.9243 25.5867C11.9612 25.6016 12.001 25.6078 12.0407 25.6049H12.097H12.1471C12.158 25.603 12.1693 25.604 12.1798 25.6078C12.1902 25.6117 12.1994 25.6182 12.2065 25.6268C12.2215 25.6612 12.2274 25.6989 12.2237 25.7363C12.2268 25.7778 12.2158 25.8192 12.1924 25.8536C12.1658 25.8833 12.1289 25.9018 12.0892 25.9052H12.0219L11.9547 25.9083Z" fill="#00303F"/>
        <path d="M14.2898 25.9083C14.185 25.9082 14.0804 25.8999 13.977 25.8833C13.8768 25.8677 13.7783 25.8426 13.683 25.8082C13.5959 25.7758 13.513 25.7333 13.4358 25.6815C13.4033 25.6595 13.3778 25.6286 13.3623 25.5924C13.3493 25.5618 13.3455 25.5281 13.3514 25.4954C13.3575 25.4647 13.3715 25.4362 13.392 25.4125C13.4028 25.3996 13.4159 25.3889 13.4308 25.3811C13.4457 25.3733 13.462 25.3685 13.4787 25.3671C13.4954 25.3656 13.5123 25.3675 13.5283 25.3726C13.5443 25.3777 13.5591 25.386 13.5719 25.3969C13.6753 25.4641 13.7889 25.5142 13.9082 25.5455C14.0341 25.5795 14.1641 25.5958 14.2945 25.594C14.4503 25.6067 14.606 25.5688 14.7387 25.486C14.7842 25.4548 14.8212 25.4127 14.8463 25.3635C14.8714 25.3144 14.8839 25.2597 14.8825 25.2045C14.8841 25.1615 14.8756 25.1188 14.8577 25.0796C14.8398 25.0405 14.8129 25.0062 14.7793 24.9793C14.6762 24.9106 14.5593 24.8653 14.4368 24.8464L14.0567 24.7697C13.8706 24.7394 13.6967 24.6576 13.5547 24.5336C13.5004 24.4746 13.4586 24.4053 13.4317 24.3298C13.4048 24.2543 13.3935 24.1741 13.3983 24.0941C13.398 23.9885 13.4216 23.8843 13.4671 23.7891C13.5143 23.6975 13.5804 23.617 13.6611 23.5529C13.7488 23.4817 13.8498 23.4286 13.9582 23.3965C14.0816 23.3602 14.2097 23.3423 14.3383 23.3434C14.4774 23.3417 14.616 23.3607 14.7496 23.3997C14.8749 23.4361 14.9925 23.4949 15.0968 23.5733C15.1254 23.5924 15.1468 23.6205 15.1578 23.653C15.1663 23.6837 15.1663 23.7162 15.1578 23.7469C15.1525 23.7761 15.1389 23.8033 15.1187 23.8251C15.0969 23.8466 15.068 23.8594 15.0374 23.861C14.9975 23.8647 14.9578 23.853 14.9263 23.8282C14.84 23.7698 14.745 23.7255 14.6448 23.6968C14.5429 23.6691 14.4377 23.6549 14.332 23.6546C14.2279 23.6525 14.1243 23.6706 14.027 23.7078C13.9476 23.7397 13.8791 23.794 13.83 23.8642C13.7829 23.9303 13.7588 24.0099 13.7612 24.091C13.7596 24.1348 13.7673 24.1785 13.7837 24.2192C13.8002 24.2599 13.825 24.2966 13.8566 24.3271C13.9474 24.3983 14.0552 24.4446 14.1694 24.4616L14.5447 24.5398C14.738 24.5698 14.9202 24.6495 15.0734 24.7713C15.1309 24.8235 15.1762 24.8876 15.2062 24.9592C15.2362 25.0308 15.2501 25.1082 15.247 25.1858C15.2486 25.2894 15.225 25.392 15.1781 25.4845C15.131 25.5735 15.0641 25.6505 14.9826 25.7097C14.8928 25.7774 14.7909 25.8273 14.6824 25.8567C14.5547 25.8928 14.4224 25.9102 14.2898 25.9083Z" fill="#00303F"/>
        <path d="M16.373 25.9083C16.2153 25.9125 16.0593 25.8747 15.921 25.7988C15.7947 25.7248 15.6922 25.6163 15.6254 25.486C15.5525 25.3406 15.516 25.1795 15.519 25.0168C15.5174 24.8901 15.538 24.7642 15.58 24.6446C15.6174 24.5403 15.6753 24.4445 15.7505 24.3631C15.8255 24.2837 15.9175 24.2222 16.0195 24.1832C16.133 24.1408 16.2534 24.1196 16.3745 24.1207C16.5308 24.1165 16.6852 24.1543 16.8219 24.2301C16.9483 24.3045 17.0512 24.4129 17.119 24.5429C17.1918 24.6885 17.2283 24.8495 17.2254 25.0121C17.2273 25.1377 17.2072 25.2626 17.1659 25.3813C17.1287 25.4865 17.0701 25.5828 16.9939 25.6643C16.9189 25.7437 16.8269 25.8052 16.7249 25.8442C16.6124 25.8867 16.4932 25.9084 16.373 25.9083ZM16.373 25.6315C16.4631 25.6338 16.5518 25.6093 16.6279 25.5611C16.7043 25.5093 16.764 25.4365 16.8 25.3515C16.844 25.2439 16.8653 25.1284 16.8625 25.0121C16.874 24.8472 16.8263 24.6837 16.728 24.5508C16.6843 24.4998 16.6297 24.4593 16.5683 24.4322C16.5068 24.4052 16.4401 24.3922 16.373 24.3944C16.282 24.393 16.1926 24.4174 16.1149 24.4647C16.0376 24.5141 15.9774 24.5862 15.9429 24.6712C15.898 24.7791 15.8767 24.8953 15.8803 25.0121C15.8699 25.1764 15.9175 25.3392 16.0148 25.472C16.0584 25.5241 16.1133 25.5656 16.1754 25.5932C16.2375 25.6209 16.3051 25.634 16.373 25.6315Z" fill="#00303F"/>
        <path d="M18.181 25.9083C18.1042 25.9147 18.0269 25.904 17.9547 25.8769C17.8825 25.8499 17.8172 25.8072 17.7634 25.7519C17.6614 25.6178 17.6119 25.4509 17.6242 25.2827V23.5342C17.6224 23.5099 17.6254 23.4854 17.6332 23.4623C17.641 23.4392 17.6534 23.4179 17.6696 23.3997C17.6872 23.3834 17.7079 23.3708 17.7305 23.3627C17.753 23.3546 17.777 23.3513 17.801 23.3528C17.8497 23.3505 17.8974 23.3674 17.9339 23.3997C17.9509 23.4175 17.964 23.4387 17.9724 23.4618C17.9807 23.485 17.9841 23.5096 17.9824 23.5342V25.2546C17.9743 25.3484 17.9998 25.4421 18.0543 25.5189C18.0806 25.5485 18.1133 25.5716 18.1499 25.5865C18.1865 25.6014 18.226 25.6077 18.2655 25.6049H18.3218H18.3718C18.3828 25.603 18.3941 25.604 18.4045 25.6078C18.415 25.6117 18.4242 25.6182 18.4313 25.6268C18.4468 25.6611 18.4533 25.6988 18.45 25.7363C18.4526 25.778 18.441 25.8193 18.4172 25.8536C18.391 25.883 18.3547 25.9014 18.3155 25.9052H18.2483L18.181 25.9083Z" fill="#00303F"/>
        <path d="M19.3243 25.9083C19.2017 25.9131 19.08 25.8861 18.9708 25.8301C18.8768 25.7767 18.8031 25.6937 18.7613 25.594C18.7111 25.471 18.6877 25.3388 18.6924 25.2061V24.299C18.6907 24.2743 18.694 24.2495 18.7021 24.2262C18.7101 24.2028 18.7228 24.1813 18.7394 24.1629C18.7756 24.1315 18.8229 24.1157 18.8707 24.1191C18.9185 24.1161 18.9657 24.1318 19.0021 24.1629C19.0193 24.1809 19.0325 24.2023 19.0409 24.2257C19.0492 24.2492 19.0526 24.2741 19.0506 24.299V25.2108C19.0417 25.3217 19.0715 25.4322 19.135 25.5236C19.1702 25.5587 19.2127 25.5858 19.2594 25.6028C19.3062 25.6198 19.3561 25.6264 19.4056 25.6221C19.4668 25.6243 19.5278 25.6132 19.5843 25.5894C19.6407 25.5656 19.6913 25.5298 19.7325 25.4845C19.8186 25.3873 19.8639 25.2607 19.8592 25.131V24.3036C19.8572 24.2791 19.8602 24.2544 19.868 24.231C19.8758 24.2076 19.8882 24.186 19.9045 24.1676C19.9421 24.1363 19.9903 24.1206 20.039 24.1238C20.0642 24.1224 20.0893 24.1261 20.113 24.1347C20.1366 24.1433 20.1583 24.1566 20.1767 24.1738C20.1931 24.1922 20.2056 24.2138 20.2134 24.2372C20.2212 24.2606 20.2241 24.2853 20.222 24.3099V25.7269C20.222 25.8473 20.1642 25.9083 20.0484 25.9083C20.0251 25.9096 20.0017 25.906 19.9799 25.8976C19.9581 25.8893 19.9382 25.8764 19.9217 25.8598C19.9054 25.8419 19.8929 25.8209 19.8848 25.7981C19.8768 25.7753 19.8734 25.7511 19.8748 25.7269V25.4266L19.9217 25.5048C19.8809 25.6278 19.8013 25.7342 19.695 25.8082C19.5844 25.8783 19.4551 25.9132 19.3243 25.9083Z" fill="#00303F"/>
        <path d="M21.4607 25.9083C21.3386 25.9118 21.2174 25.8861 21.1073 25.8332C21.0128 25.7865 20.9367 25.7094 20.8914 25.6142C20.8404 25.503 20.8158 25.3815 20.8195 25.2592V24.424H20.6068C20.5666 24.4256 20.5274 24.4116 20.4973 24.3849C20.476 24.3652 20.4614 24.3393 20.4558 24.3108C20.4501 24.2823 20.4536 24.2527 20.4657 24.2263C20.4779 24.2 20.4981 24.1781 20.5234 24.1639C20.5487 24.1497 20.5779 24.1438 20.6068 24.1472H20.8195V23.7828C20.818 23.7581 20.8213 23.7334 20.8294 23.7101C20.8374 23.6867 20.85 23.6652 20.8664 23.6467C20.9038 23.615 20.9519 23.5988 21.0009 23.6014C21.049 23.5986 21.0962 23.6149 21.1323 23.6467C21.1648 23.6843 21.1811 23.7332 21.1776 23.7828V24.1472H21.5937C21.6225 24.1438 21.6517 24.1497 21.677 24.1639C21.7024 24.1781 21.7225 24.2 21.7347 24.2263C21.7468 24.2527 21.7503 24.2823 21.7447 24.3108C21.739 24.3393 21.7245 24.3652 21.7031 24.3849C21.673 24.4116 21.6338 24.4256 21.5937 24.424H21.1792V25.2326C21.1718 25.3332 21.1994 25.4332 21.2574 25.5157C21.2906 25.5507 21.3315 25.5775 21.3768 25.594C21.4221 25.6106 21.4706 25.6164 21.5186 25.6111C21.556 25.6117 21.5933 25.6075 21.6296 25.5986L21.711 25.583C21.7227 25.5828 21.7343 25.5851 21.745 25.5897C21.7558 25.5943 21.7655 25.601 21.7735 25.6096C21.7941 25.6392 21.803 25.6754 21.7985 25.7112C21.7987 25.7451 21.7918 25.7787 21.7782 25.8097C21.7728 25.8246 21.7639 25.838 21.7522 25.8486C21.7404 25.8592 21.7263 25.8668 21.711 25.8707C21.6719 25.882 21.6322 25.8909 21.5921 25.8973C21.5486 25.9041 21.5047 25.9077 21.4607 25.9083Z" fill="#00303F"/>
        <path d="M22.2271 23.7609C22.1671 23.7643 22.1081 23.7454 22.0613 23.7077C22.0404 23.6877 22.0244 23.6633 22.0144 23.6362C22.0044 23.6091 22.0006 23.5801 22.0034 23.5513C22.0004 23.5226 22.004 23.4935 22.014 23.4663C22.0241 23.4392 22.0403 23.4148 22.0613 23.3949C22.108 23.3573 22.1673 23.3388 22.2271 23.3433C22.2838 23.3409 22.3394 23.3593 22.3835 23.3949C22.4045 23.4148 22.4207 23.4392 22.4307 23.4663C22.4408 23.4935 22.4444 23.5226 22.4414 23.5513C22.4439 23.5801 22.4401 23.609 22.4301 23.6361C22.4201 23.6631 22.4042 23.6876 22.3835 23.7077C22.3393 23.7433 22.2839 23.7622 22.2271 23.7609ZM22.2271 25.8973C22.2029 25.8988 22.1787 25.8951 22.156 25.8865C22.1333 25.8778 22.1128 25.8645 22.0957 25.8473C22.0625 25.8064 22.0457 25.7545 22.0488 25.7018V24.3208C22.0461 24.2692 22.0628 24.2184 22.0957 24.1785C22.1129 24.1615 22.1335 24.1484 22.1561 24.14C22.1788 24.1316 22.203 24.1282 22.2271 24.13C22.2512 24.1283 22.2753 24.1318 22.298 24.1401C22.3206 24.1485 22.3412 24.1616 22.3585 24.1785C22.3926 24.2177 22.4101 24.2688 22.4069 24.3208V25.705C22.4102 25.7569 22.394 25.8082 22.3616 25.8488C22.3439 25.866 22.3228 25.8792 22.2996 25.8876C22.2764 25.8959 22.2517 25.8993 22.2271 25.8973Z" fill="#00303F"/>
        <path d="M23.6612 25.9083C23.5035 25.9125 23.3476 25.8747 23.2093 25.7988C23.083 25.7248 22.9804 25.6163 22.9137 25.486C22.8408 25.3406 22.8043 25.1795 22.8073 25.0168C22.8057 24.8901 22.8263 24.7642 22.8683 24.6446C22.9056 24.5403 22.9636 24.4445 23.0388 24.3631C23.1138 24.2837 23.2057 24.2222 23.3078 24.1832C23.4213 24.1408 23.5416 24.1196 23.6628 24.1207C23.819 24.1165 23.9735 24.1543 24.1101 24.2301C24.2365 24.3045 24.3395 24.4129 24.4073 24.5429C24.4793 24.6887 24.5157 24.8495 24.5136 25.0121C24.5154 25.1389 24.4948 25.2649 24.4526 25.3844C24.4154 25.4896 24.3568 25.586 24.2806 25.6675C24.2056 25.7469 24.1136 25.8083 24.0116 25.8473C23.8994 25.8884 23.7807 25.9091 23.6612 25.9083ZM23.6612 25.6315C23.7513 25.6336 23.84 25.6091 23.9162 25.5611C23.9925 25.5093 24.0523 25.4365 24.0882 25.3515C24.1323 25.2439 24.1536 25.1284 24.1508 25.0121C24.1623 24.8472 24.1146 24.6837 24.0163 24.5508C23.9726 24.4998 23.918 24.4593 23.8565 24.4322C23.7951 24.4052 23.7284 24.3922 23.6612 24.3944C23.5703 24.393 23.4808 24.4174 23.4032 24.4647C23.3258 24.5144 23.2653 24.5864 23.2296 24.6712C23.1859 24.7794 23.1651 24.8955 23.1686 25.0121C23.1581 25.1764 23.2057 25.3392 23.3031 25.472C23.3467 25.5241 23.4016 25.5656 23.4637 25.5932C23.5258 25.6209 23.5933 25.634 23.6612 25.6315Z" fill="#00303F"/>
        <path d="M25.0892 25.9005C25.0649 25.902 25.0405 25.8985 25.0176 25.8902C24.9948 25.8818 24.9739 25.8688 24.9562 25.852C24.9248 25.8158 24.9091 25.7685 24.9124 25.7207V24.3037C24.909 24.2544 24.9247 24.2057 24.9562 24.1676C24.9919 24.136 25.0385 24.1198 25.0861 24.1223C25.1094 24.1209 25.1327 24.1242 25.1548 24.132C25.1768 24.1398 25.197 24.1519 25.2143 24.1676C25.2468 24.2052 25.2632 24.2541 25.2597 24.3037V24.5789L25.2206 24.5148C25.2664 24.3909 25.3523 24.2858 25.4645 24.2161C25.5805 24.1477 25.7131 24.1125 25.8477 24.1144C25.9663 24.1103 26.0838 24.1372 26.1887 24.1926C26.2806 24.2436 26.3528 24.3241 26.3936 24.421C26.4416 24.545 26.4645 24.6774 26.4608 24.8104V25.7207C26.463 25.7689 26.4461 25.8161 26.4139 25.852C26.3974 25.8696 26.3772 25.883 26.3546 25.8914C26.3321 25.8999 26.308 25.903 26.2841 25.9005C26.2592 25.9029 26.2342 25.8998 26.2107 25.8914C26.1871 25.883 26.1658 25.8696 26.148 25.852C26.1162 25.8159 26.0999 25.7687 26.1027 25.7207V24.8307C26.1119 24.7154 26.081 24.6005 26.0151 24.5054C25.9804 24.4692 25.9382 24.4412 25.8914 24.4234C25.8446 24.4055 25.7944 24.3983 25.7445 24.4022C25.6807 24.3991 25.6169 24.4095 25.5574 24.4327C25.4978 24.4558 25.4438 24.4913 25.3989 24.5367C25.3546 24.5854 25.3204 24.6424 25.2984 24.7045C25.2764 24.7665 25.2669 24.8323 25.2706 24.898V25.7254C25.2734 25.7463 25.272 25.7676 25.2664 25.7879C25.2608 25.8083 25.2511 25.8273 25.238 25.8438C25.2248 25.8603 25.2084 25.874 25.1899 25.884C25.1713 25.894 25.1509 25.9002 25.1298 25.9021C25.1163 25.9031 25.1026 25.9026 25.0892 25.9005Z" fill="#00303F"/>
        <path d="M27.5572 25.9083C27.452 25.9076 27.3471 25.8956 27.2444 25.8723C27.1373 25.8508 27.0347 25.8112 26.941 25.755C26.9135 25.7377 26.8917 25.7127 26.8784 25.6831C26.866 25.6584 26.8611 25.6307 26.8644 25.6033C26.8681 25.5771 26.8795 25.5526 26.8972 25.5329C26.9149 25.5134 26.9385 25.5002 26.9645 25.4954C26.9944 25.4922 27.0246 25.4988 27.0505 25.5142C27.1338 25.5619 27.2233 25.5982 27.3164 25.6221C27.3988 25.6422 27.4833 25.6522 27.5682 25.6518C27.6676 25.6579 27.7666 25.6345 27.8528 25.5845C27.8823 25.5645 27.9064 25.5374 27.9227 25.5057C27.9391 25.474 27.9474 25.4388 27.9467 25.4031C27.9482 25.3758 27.9432 25.3484 27.932 25.3234C27.9209 25.2984 27.9039 25.2764 27.8825 25.2592C27.8255 25.2193 27.7603 25.1926 27.6917 25.181L27.3555 25.1138C27.2313 25.0962 27.1152 25.0417 27.0223 24.9574C26.9837 24.9183 26.9532 24.8719 26.9328 24.8208C26.9124 24.7698 26.9024 24.7152 26.9035 24.6602C26.9018 24.5587 26.9331 24.4594 26.9926 24.3771C27.0562 24.2934 27.1417 24.229 27.2397 24.191C27.3575 24.146 27.4828 24.1237 27.6088 24.1253C27.7082 24.125 27.8071 24.1381 27.9029 24.1644C27.9935 24.1899 28.0795 24.2295 28.1578 24.2817C28.1855 24.2953 28.2073 24.3187 28.2188 24.3474C28.225 24.3736 28.225 24.401 28.2188 24.4272C28.213 24.4532 28.2 24.477 28.1813 24.496C28.1631 24.5158 28.1389 24.529 28.1124 24.5335C28.0809 24.535 28.0496 24.5279 28.0217 24.5132C27.9567 24.4707 27.8855 24.4385 27.8106 24.4178C27.7428 24.3993 27.6729 24.3893 27.6026 24.3881C27.5039 24.3816 27.4056 24.4056 27.3211 24.4569C27.2914 24.4782 27.2673 24.5064 27.2509 24.5391C27.2346 24.5718 27.2265 24.608 27.2272 24.6446C27.2264 24.6713 27.231 24.6978 27.241 24.7226C27.251 24.7474 27.266 24.7698 27.2851 24.7885C27.3339 24.8337 27.3958 24.8622 27.4618 24.8698L27.7981 24.9386C27.9282 24.9566 28.0507 25.0108 28.1515 25.095C28.1902 25.1318 28.2207 25.1763 28.2412 25.2256C28.2617 25.2748 28.2716 25.3279 28.2704 25.3812C28.2728 25.4566 28.2561 25.5314 28.2219 25.5986C28.1878 25.6659 28.1372 25.7234 28.0749 25.766C27.922 25.8676 27.7406 25.9175 27.5572 25.9083Z" fill="#00303F"/>
    </g>
    <defs>
    <clipPath id="clip0_1_5572">
        <rect width="58.4296" height="26" fill="white" transform="translate(0.570312 0.547974)"/>
    </clipPath>
    </defs>
</svg>